<?xml version="1.0"?>
<svg xmlns:rdf="http://www.w3.org/1999/02/22-rdf-syntax-ns#" xmlns="http://www.w3.org/2000/svg" xmlns:cc="http://creativecommons.org/ns#" xmlns:xlink="http://www.w3.org/1999/xlink" xmlns:dc="http://purl.org/dc/elements/1.1/" xmlns:svg="http://www.w3.org/2000/svg" id="svg7058" viewBox="0 0 744.09 1052.4" version="1.1">
  <defs id="defs7060">
    <linearGradient id="linearGradient5061">
      <stop id="stop5063" offset="0"/>
      <stop id="stop5069" stop-color="#f0f0f0" offset=".49948"/>
      <stop id="stop5065" offset="1"/>
    </linearGradient>
    <linearGradient id="linearGradient4634">
      <stop id="stop4636" stop-color="#cb3b75" offset="0"/>
      <stop id="stop4638" stop-color="#fabcd7" offset=".45718"/>
      <stop id="stop4640" stop-color="#cc3a6e" offset="1"/>
    </linearGradient>
    <linearGradient id="linearGradient6621">
      <stop id="stop6623" stop-color="#ffd5e5" offset="0"/>
      <stop id="stop6629" stop-color="#fff6fa" offset=".46923"/>
      <stop id="stop6625" stop-color="#ffd5e5" offset="1"/>
    </linearGradient>
    <filter id="filter4850" y="-.16013" width="1.1597" height="1.3203" x="-.079826">
      <feGaussianBlur id="feGaussianBlur4852" stdDeviation="0.27763686"/>
    </filter>
    <filter id="filter4890" y="-.16856" width="1.1681" height="1.3371" x="-.084028">
      <feGaussianBlur id="feGaussianBlur4892" stdDeviation="0.29224932"/>
    </filter>
    <filter id="filter4926" y="-.38434" width="1.1313" height="1.7687" x="-.065654">
      <feGaussianBlur id="feGaussianBlur4928" stdDeviation="0.60299971"/>
    </filter>
    <filter id="filter4483">
      <feGaussianBlur id="feGaussianBlur4485" stdDeviation="2.7712255"/>
    </filter>
    <linearGradient id="linearGradient5574" y2="562.61" xlink:href="#linearGradient6621" gradientUnits="userSpaceOnUse" x2="385.73" gradientTransform="matrix(.099231 0 0 .099231 281.22 79.218)" y1="563.35" x1="212.27"/>
    <radialGradient id="radialGradient5576" gradientUnits="userSpaceOnUse" cy="398.43" cx="405.45" gradientTransform="matrix(1.3411 -.16254 .20602 1.7451 -220.38 -230.96)" r="27.02">
      <stop id="stop6609" stop-color="#3485ff" offset="0"/>
      <stop id="stop6615" stop-color="#a3ccdd" offset=".47634"/>
      <stop id="stop6611" stop-color="#3485ff" offset="1"/>
    </radialGradient>
    <radialGradient id="radialGradient5578" gradientUnits="userSpaceOnUse" cy="401.16" cx="376.5" gradientTransform="matrix(1 0 0 1.1429 0 -57.309)" r="3.5987">
      <stop id="stop6601" stop-color="#fff" offset="0"/>
      <stop id="stop6603" stop-color="#fff" stop-opacity="0" offset="1"/>
    </radialGradient>
    <linearGradient id="linearGradient5580" y2="562.61" xlink:href="#linearGradient6621" gradientUnits="userSpaceOnUse" x2="385.73" gradientTransform="matrix(-.099231 0 0 .099231 385.59 79.21)" y1="563.35" x1="212.27"/>
    <linearGradient id="linearGradient5586" y2="199.65" gradientUnits="userSpaceOnUse" x2="343.51" gradientTransform="matrix(.87844 -.020070 .016659 .72915 40.164 74.886)" y1="199.65" x1="361.73">
      <stop id="stop4760" stop-color="#cb3b75" offset="0"/>
      <stop id="stop4762" stop-color="#fabcd7" offset=".45181"/>
      <stop id="stop4764" stop-color="#cc3a6e" offset="1"/>
    </linearGradient>
    <linearGradient id="linearGradient5588" y2="206.86" xlink:href="#linearGradient4634" gradientUnits="userSpaceOnUse" x2="350.2" gradientTransform="matrix(.99977 -.021628 .021628 .99977 -4.5652 6.3959)" y1="208.56" x1="345.17"/>
    <linearGradient id="linearGradient5590" y2="206.86" xlink:href="#linearGradient4634" gradientUnits="userSpaceOnUse" x2="350.2" gradientTransform="matrix(-.99977 -.021628 -.021628 .99977 711.81 6.4593)" y1="208.56" x1="345.17"/>
    <linearGradient id="linearGradient5592" y2="413.26" xlink:href="#linearGradient5061" gradientUnits="userSpaceOnUse" x2="789.62" y1="419.32" x1="716.52"/>
    <linearGradient id="linearGradient5608" y2="420.18" gradientUnits="userSpaceOnUse" x2="970.19" gradientTransform="matrix(.72860 0 0 .72860 -105.48 498.68)" y1="433.01" x1="266.73">
      <stop id="stop4489" stop-color="#eb0000" offset="0"/>
      <stop id="stop4496" stop-color="#ffeded" offset=".49178"/>
      <stop id="stop4491" stop-color="#eb0000" offset="1"/>
    </linearGradient>
    <linearGradient id="linearGradient5610" y2="425.22" gradientUnits="userSpaceOnUse" x2="794.18" gradientTransform="matrix(.72860 0 0 .72860 -362.57 580.17)" y1="439.37" x1="436.25">
      <stop id="stop4790" stop-color="#ffabee" offset="0"/>
      <stop id="stop4792" stop-color="#f9f9f9" offset=".48277"/>
      <stop id="stop4794" stop-color="#ffabee" offset="1"/>
    </linearGradient>
    <linearGradient id="linearGradient5612" y2="387.5" xlink:href="#linearGradient5061" gradientUnits="userSpaceOnUse" x2="320.93" gradientTransform="matrix(1.0348 .0061769 -.0061769 1.0348 149.88 -109.08)" y1="387.5" x1="36.487"/>
    <linearGradient id="linearGradient5614" y2="255.5" gradientUnits="userSpaceOnUse" x2="355.89" gradientTransform="matrix(-.73662 .61506 -.61506 -.73662 606.2 511.49)" y1="246.15" x1="347.13">
      <stop id="stop3920" stop-color="#f0b800" offset="0"/>
      <stop id="stop3922" stop-color="#fff5d2" offset=".56227"/>
      <stop id="stop3924" stop-color="#f0b700" offset="1"/>
    </linearGradient>
  </defs>
  <g id="layer1">
    <g id="g5458" transform="translate(-13.999)">
      <g id="g5343">
        <g id="g5229">
          <g id="g5116">
            <g id="g4779" transform="matrix(.87905 -.38493 .38493 .87905 -288.3 382.67)">
              <g id="g4775" fill="none">
                <path id="path4766" stroke="#000" stroke-width="11.389" d="m603.97 580.53c1.97-8.17-0.7-30.09 1.89-40 4.44-16.99 12.76-23.42 31.64-27.78 16.74-3.87 36.16-4.3 44.94 12.74 5.95 11.57 8.04 18.88 13.47 30.04 0.85 1.75 1.08 5.1 1.51 7.16"/>
                <path id="path4768" d="m552.13 303.08c4.76-10 7.28-38.97 13.32-51.04 10.34-20.69 22.81-26.72 48.33-27.2 22.62-0.44 47.77 4.29 54.44 28.64 4.53 16.53 5.23 26.51 9.2 42.37 0.62 2.49 0 6.87 0 9.64" transform="matrix(.74289 -.15672 .15672 .74289 146.3 441.91)" filter="url(#filter4483)" stroke="#d4d4d4" stroke-width="4.2"/>
              </g>
            </g>
            <path id="path2940-7-0-0-2-5-4-6" d="m420.62 501.05c-9.17-57.48-33.11-59.2-25.98-123.34 15.26-56.73 46.08-110.08 34.17-138.53-0.91-1.81-5.08-3.7-12.21-5.33-2.71-0.62-5.99-1.17-9.28-1.69-13.73-2.16-31.71-3.16-46.87-1.45-19.38 2.18-5.22-23.1-11.64-25.11-9.82-3.08-43.16-4.1-41.65 1.68 1.18 4.55 1.84 24.24-10.18 23.3-34.86-2.73-63.18 2.1-65.36 8.37-10.66 29.91 8.13 55.06 30.26 135.47 22.9 58.8-14.38 66.25-19.75 125.58 0 0 15.33 0.67 178.49 1.05z" fill="#fee3c0"/>
            <path id="path3797" d="m223.87 245.31c2.04-4.64 5.64-6.69 9.08-8.43 16.18-8.15 12.02-1.04 21.08 13.26-8.77 72.69-13.33 97.93-30.99 171.33 5.1 16.09-17.84 96.22-26.75 152.1l-14.91-0.77c5.35-73.84 8.56-128.37 19.48-154.8-2.3-64.66 6.22-103.47 23.01-172.69z" fill="#fee2bd"/>
            <path id="rect3780" d="m310.72 206.92c0.14-0.36 0.41-0.69 0.78-0.96 0.21-0.16 0.44-0.3 0.69-0.43 0.26-0.13 0.54-0.25 0.81-0.36 0.67-0.28 0.99-0.46 2.46-0.75 2.09-0.41 4.58-0.65 7.14-0.78 0.96-0.05 1.92-0.13 2.89-0.13 0.88 0.01 1.65-0.01 2.36 0 0.84 0 1.58-0.03 2.28-0.02 0.4 0.01 0.78 0.03 1.16 0.03 0.4 0 0.95 0.01 1.59 0.04 1.08 0.04 2 0.08 3.09 0.14 2.65 0.15 6.78 0.46 10.45 1 1.17 0.17 2.33 0.33 3.35 0.57 0.66 0.16 1.28 0.29 1.83 0.45 0.36 0.12 0.71 0.22 1.01 0.33 1.02 0.37 1.02 0.71 1.09 0.91 0.06 0.14 0.22 0.41 0.35 1.02 0.28 1.3 0.17 3.39 0.13 4.03-0.13 1.89-0.39 5.59-0.52 7.57-0.17 2.54-0.23 4.68 0.18 6.3 0.06 0.25 0.15 0.49 0.23 0.71 0.06 0.18 0.12 0.33 0.2 0.5 0.15 0.3 0.29 0.55 0.42 0.77 0.24 0.41 0.49 0.79 0.8 1.12 0.18 0.19 0.41 0.41 0.73 0.66 0.27 0.21 0.59 0.44 1.05 0.67 0.74 0.37 1.32 0.52 1.85 0.64 0.78 0.19 1.49 0.25 2.6 0.26 0.44 0.01 0.74-0.01 1.13-0.03 0.67-0.03 1.35-0.1 1.94-0.15 0.56-0.05 1.62-0.19 1.85-0.21 0.28-0.03 0.99-0.08 1.35-0.12 1.18-0.11 2.52-0.17 3.59-0.24 1.23-0.08 2.2-0.24 3.57-0.29 1.07-0.03 2.13-0.06 3.42-0.05 1.3 0 2.69-0.05 4.03-0.02 0.91 0.02 1.81 0.04 2.62 0.07 0.51 0.02 0.98 0.03 1.42 0.05 0.4 0.01 0.76 0.01 1.09 0.02 8.4 0.3 8.57 10.47 5.15 11.47-4.22 1.23-7.72 3.21-26.69 3.36-8.5 0.07-16.32-2.48-18.48-2.73-4.63-0.54-9.99-1.58-12.89-0.83-3.5 0.9-3.02 0.29 0.05-2.19 2.16-1.75 3.79-1.58 7.12-1.89 5.82-0.54 7.42-0.13 7.27-0.2-3.33-1.69-0.72-18.65-1.2-20.44-0.41-1.51-2 6.01-5.91 8.87-7.56 5.52-19.41-0.13-25.14-8.01-1.48-2.03 2.48 14.66-4.89 18.82-2.57 1.45 5.32-0.01 9.17 0.25 3.47 0.24 8.02 4.67 7.28 5-2.68-0.37-5.02-1.4-8.04-1.09-3.39 0.85-7.75 1.41-14.23 2.88-3.39 0.77-6.99 1.33-10.48 1.34-13.9 0.03-18.45-1.95-22.26-6.05-0.9-1.64 0.19-8.53 1.3-8.55 0.74-0.02 1.68-0.04 2.25-0.05 0.42 0 0.81 0.01 1.17 0 0.35 0 0.67-0.02 0.99-0.02 0.6 0 1.19 0.01 1.72 0.01 1.06 0 1.9 0.01 3.22 0 1.68-0.01 3.66-0.03 5.28 0.03 3.24 0.13 4.35 0.17 7.36 0.4 1.56 0.12 2.68 0.19 4.34 0.21 0.85 0.01 1.84 0.1 2.94-0.24 0.65-0.21 1.35-0.63 2.1-1.11 0.52-0.33 0.88-0.76 1.26-1.2 0.69-0.79 1.27-1.71 1.76-2.73 0.46-0.97 0.81-2.24 1.06-3.67 0.16-0.89 0.8-3.47 0.92-5.91 0.08-1.78 0.15-3.23 0.07-3.98-0.11-1-0.32-2.11-0.41-2.93-0.1-0.98-0.15-1.88-0.17-2.14z" fill="#f5d4a8"/>
            <path id="path7048" d="m332.44 96.511c-10.75 1.43-21.43 6.149-29.05 13.699-6.08 6.58-10.65 14.27-14.27 22.52-2.57 7.96-3.74 15.83-3.99 24.18-0.03 9.81 3.69 19.6 8.02 28.57 2.89 7.73 11.72 14.78 17.58 21.41 0.27 0.44 0.54 2.65 0.6 5.55 0.06 2.8-0.1 6.31-0.84 9.38-1.05 4.38-2.97 7.82-4.26 8.22-0.62 0.2-1.52 0.58-2.64 0.73-7.1 0.9-22.8 1.83-29.56 1.76-11.38 0.1-17.37 0.61-26.65 1.02-2.24 0.04-3.87 0.92-5.47 1.51-9.19 3.41-9.2 13.56-14.99 9.54-7.86-4.05-10.4-39.32-1.27-33.33 19.85 12.85 5.31-23.28 17.4-15.88 9.06 4.77 5.97-10.58 9.53-20.94 3.51-15.94 5.81-30.78 11.9-51.93 2.52-7.92 4.76-17.79 10.89-26.724 5.77-7.484 10.58-14.213 23.61-20.391 16.72-7.524 33.75-9.2 46.58-7.391 9.09 1.099 19.13 4.446 26.74 10.52 11.67 8.254 20.38 20.891 25.08 33.216 4.85 14.55 7.49 45.53 9.5 62.79 3.36 11.34 3.78 26.95 15.09 18.64 9.88-7.06 3.21 23.6 17.76 18.61 18.15-6.23 9.76 26.94-2.03 28.1-2.83-0.3-5.48-0.68-7.97-1.66-2.72-1.08-3.27-1.64-6.39-2.68-1.93-0.65-2.62-0.62-2.96-0.72-0.35-0.09-0.44-0.14-0.64-0.2-0.37-0.09-0.62-0.16-1.07-0.27-0.57-0.15-0.99-0.27-1.61-0.41-0.48-0.1-0.74-0.12-1.22-0.22-0.18-0.03-1.44-0.29-1.63-0.33-0.08-0.02-2.2-0.42-2.32-0.43-0.16-0.03-0.65-0.05-1.3-0.17-0.58-0.11-1.09-0.17-1.83-0.33-0.76-0.15-1.53-0.25-2.31-0.34-1.59-0.19-2.48-0.48-3.59-0.6-0.24-0.03-0.48-0.08-0.73-0.09-1.13-0.08-2.3-0.22-4.02-0.3-1.41-0.06-2.61-0.47-4.43-0.43-4.9 0.1-10.65 0.48-16.31 0.65-6.42 0.19-13.33 0.28-17.85-0.33-0.73-0.1-1.23-0.31-1.71-0.41-0.57-0.12-1.09-0.47-1.63-0.66-0.72-0.24-1.06-0.6-1.52-1.13-0.45-0.51-0.61-1.06-0.9-1.49-0.07-0.14-0.17-0.28-0.24-0.44-0.04-0.08-0.05-0.12-0.1-0.24-0.02-0.07-0.06-0.12-0.08-0.19-0.01-0.05-0.02-0.1-0.05-0.15-0.63-1.34-0.84-2.76-0.98-4.48-0.16-1.99 0.79-5.94 0.83-8.39 0.02-1.95-1.29-4.45-0.04-6.64 2.46-4.28 10.61-6.39 14.27-11.93 4.05-5.1 9.09-15.22 10.99-23.5 1.56-5.48 2.68-13.91 1.86-23.8-1.62-8.66-3.97-16.57-7.99-24.48-7.31-16.17-28.93-27.444-39.79-26.589z" fill="#2f2f2f" fill-rule="evenodd"/>
            <g id="g4082" fill-rule="evenodd" transform="matrix(1.0349 0 0 1.0349 -32.561 -27.543)" fill="#6b6b6b">
              <path id="path3977" opacity=".42" d="m310.21 232.74c6.52 2.25 6.33 10.06-1.19 10.74-9.75 0.33-19.59-0.44-29.38-0.79-5.83-1.05-9.56 1.72-13.85 3.44-5.01-2.09-4.7-7.68-3.69-11.12 0.54-3.84 9.42 2.48 9.72-2.51-1.02-2.37 1.55-6.06 5.7-3.76 3.78-3.92 5.21-8.67 7.93-12.93 1.47-3.42 2.46-8.41 3.89-13.49 1.86-6.61 2.41-13.71 6.39-17.54 3.07-4.87-8.74 38.56 14.48 47.96z"/>
              <path id="path3979" opacity=".42" d="m392.93 229.65c-6.52 2.25-6.33 10.06 1.19 10.74 9.75 0.33 19.58-0.44 29.37-0.79 5.83-1.05 9.56 1.72 13.86 3.43 5-2.09 4.69-7.67 3.69-11.11-0.55-3.84-9.43 2.48-9.73-2.51 1.02-2.37-1.55-6.06-5.69-3.76-3.78-3.92-5.22-8.67-7.94-12.93-1.47-3.43-2.46-8.41-3.89-13.49-1.86-6.61-2.4-13.71-6.39-17.54-3.07-4.87 8.75 38.56-14.47 47.96z"/>
              <path id="path3981" opacity=".42" d="m386.32 110.79c-6.97-5.64-19.44-8.55-31.95-8.32-7.28 0.13-14.58 1.85-20.81 3.34-6.14 1.47-11.3 5.11-14.51 7.22-10.28 7.35-25.31 30.69-23.59 34.99 5.39 6.94 18.6-19 26.7-26.26 7.05-6.33 22.34-10.94 30.84-10.69 7.93 0.23 19 0.66 28.37 7.61 13.98 10.39 18.23 32.37 24.9 32.37 6.36-3.41-0.51-15.89-7.73-26.76-3.71-5.57-8.6-11.09-12.22-13.5z"/>
            </g>
            <path id="path2963" d="m223.02 176.1a37.169 45.532 0 1 1 -74.34 0 37.169 45.532 0 1 1 74.34 0z" fill="#fee2bd" transform="matrix(1.2926 0 0 1.2926 92.92 -72.919)"/>
            <path id="rect3764-0-3" d="m326.35 131.51c-7.45-8.12-18.61-9.38-30.12 0v1.05c10.88-6.83 23.61-0.32 30.12 0v-1.05z" fill="#39330e"/>
            <path id="path2818-7-6-8" d="m324.4 149.31c-1.42-0.99-1.61-1.58-2.78-2.91-0.43-0.48-0.96-1.01-1.51-1.5-0.23-0.2-0.48-0.38-0.71-0.57-0.21-0.17-0.45-0.32-0.64-0.48-1.53-1.3-3.58-2.25-5.58-2.72-1.59-0.4-3.04-0.47-4.4-0.35-3.53 0.31-6.27 2.03-8.18 4.65 2.08 4.24 6.05 7.63 10.88 8 4.9 0.37 8.4-2.97 12.92-4.12z" stroke="#000" stroke-width="1.0736" fill="#fff"/>
            <path id="rect4137-0-1" d="m325.91 149.06c-0.38 0.18-0.9-0.78-1.17-0.92-0.29-0.16-0.61-0.43-1.06-1.01-0.85-1.08-1.68-2.04-2.52-2.93-0.48-0.52-1.13-0.98-1.61-1.43-0.69-0.63-1.5-1.06-2.21-1.51-0.17-0.12-0.25-0.22-0.42-0.31-0.06-0.03-0.13-0.08-0.18-0.12-6.46-4.33-12.5-2.49-16.95 3.53-1.99-2.52-0.09-8.31 0.72-9.32 1.11-1.17 5.32-3.88 10.33-3.23 4.49 0.59 6.43 1.13 9.91 3.82 1.58 1.23 4.04 3.75 5.66 6.76 1.05 2.57 0.48 5.36-0.5 6.67z" fill="url(#linearGradient5574)"/>
            <path id="rect4137-0-2-9" d="m325.66 149.54c-0.95-0.44-1.4-0.63-2.22-1.74-6.49-8.76-17.5-10.41-23.43-2.38-0.3-0.38-0.47-0.77-0.56-1.13-0.53-2.09 2-3.85 3.5-5.12 2.04-1.42 3.84-2.68 7.53-2.48 1.81 0.1 3.87 0.55 7.1 2.3 1.76 0.96 4.53 3.34 5.96 4.85 2.31 2.47 3.09 4.49 2.12 5.7z" fill="#c83771"/>
            <path id="path2820-8-6" d="m432.47 398.43a27.02 29.22 0 1 1 -54.04 0 27.02 29.22 0 1 1 54.04 0z" fill="url(#radialGradient5576)" transform="matrix(-.20429 -.017764 -.019601 .17953 402.02 82.661)"/>
            <g id="g3690-6-0" transform="matrix(-.16414 .0015004 -.0020526 .15944 377.65 82.418)">
              <path id="path2820-1-5-2" d="m432.18 398.43a26.728 29.22 0 1 1 -53.46 0 26.728 29.22 0 1 1 53.46 0z" transform="matrix(.62712 0 0 .68217 143.94 130.48)"/>
              <path id="rect3616-0-8" opacity=".84615" d="m382.91 397.29c4.84-12.93 13.84-15.96 23.6-11.45l-0.35 1.78c-10.63-3.9-17.81-0.53-21.79 10.89l-1.46-1.22z"/>
              <path id="rect3616-8-9-6" opacity=".84615" d="m413.26 407.27c-4.84 12.93-13.83 15.96-23.6 11.46l0.36-1.78c10.62 3.89 17.81 0.52 21.79-10.89l1.45 1.21z"/>
            </g>
            <path id="path3670-1-02" d="m380.09 401.16a3.5987 4.1128 0 1 1 -7.19 0 3.5987 4.1128 0 1 1 7.19 0z" fill="url(#radialGradient5578)" transform="matrix(-.45753 -.042968 -.041887 .41435 500.48 -3.034)"/>
            <path id="rect3789-2-2-3-5" d="m326 147.47l-0.26 0.07c0.28 0.78-0.37 1.04-1.05 1.51 0.07 0.06 0.14 0.12 0.22 0.18 0.83-0.48 1.43-0.92 1.09-1.76z" stroke="#241f1c" stroke-width=".15911" fill="#241f1c"/>
            <path id="rect3789-2-6-4-4-0" d="m324.95 146.54l-0.26 0.07c0.29 0.77-0.3 0.95-0.97 1.47 0.03 0.06 0.11 0.15 0.18 0.22 0.82-0.51 1.41-0.93 1.05-1.76z" stroke="#241f1c" stroke-width=".15911" fill="#241f1c"/>
            <path id="rect3789-2-6-0-5-4-9" d="m324.15 145.49l-0.26 0.07c0.27 0.77-0.31 0.99-1.01 1.45l0.18 0.21c0.83-0.46 1.43-0.89 1.09-1.73z" stroke="#241f1c" stroke-width=".15911" fill="#241f1c"/>
            <path id="rect3789-2-60-17-0-0" d="m323.21 144.43l-0.26 0.08c0.33 0.76-0.24 1.02-0.9 1.52l0.19 0.21c0.8-0.52 1.36-1 0.97-1.81z" stroke="#241f1c" stroke-width=".15911" fill="#241f1c"/>
            <path id="rect3789-2-6-3-1-6-6" d="m322.17 143.38l-0.26 0.09c0.37 0.74-0.19 1.04-0.83 1.57l0.2 0.19c0.78-0.56 1.32-1.06 0.89-1.85z" stroke="#241f1c" stroke-width=".15911" fill="#241f1c"/>
            <path id="rect3789-2-6-0-6-1-6-1" d="m321.14 142.53l-0.25 0.11c0.41 0.72-0.12 1.04-0.73 1.6l0.22 0.19c0.74-0.61 1.24-1.14 0.76-1.9z" stroke="#241f1c" stroke-width=".15911" fill="#241f1c"/>
            <path id="rect3789-2-8-5-1-3" d="m320.08 141.65l-0.24 0.13c0.43 0.69-0.1 1.04-0.69 1.64l0.22 0.17c0.72-0.64 1.22-1.2 0.71-1.94z" stroke="#241f1c" stroke-width=".15911" fill="#241f1c"/>
            <path id="rect3789-2-6-8-2-8-8" stroke="#000" stroke-width=".15911" d="m318.93 140.86l-0.23 0.14c0.48 0.66-0.01 1.05-0.54 1.7l0.23 0.16c0.67-0.71 1.1-1.31 0.54-2z"/>
            <path id="rect3789-2-6-0-1-7-4-9" d="m317.63 140.1l-0.22 0.18c0.53 0.59 0.07 1.04-0.41 1.74l0.24 0.13c0.61-0.77 1-1.42 0.39-2.05z" stroke="#241f1c" stroke-width=".15911" fill="#241f1c"/>
            <path id="rect3789-2-60-1-1-6-4" d="m316.3 139.47l-0.21 0.19c0.57 0.55 0.14 1.04-0.29 1.77l0.25 0.12c0.55-0.82 0.91-1.5 0.25-2.08z" stroke="#241f1c" stroke-width=".15911" fill="#241f1c"/>
            <path id="rect3789-2-6-3-4-42-3-4" d="m315.02 139.05l-0.2 0.21c0.6 0.51 0.2 1.02-0.19 1.78l0.26 0.09c0.5-0.85 0.81-1.54 0.13-2.08z" stroke="#241f1c" stroke-width=".15911" fill="#241f1c"/>
            <path id="rect3789-2-6-0-6-9-3-7-6" d="m313.66 138.67l-0.19 0.22c0.64 0.47 0.28 1-0.05 1.79l0.26 0.08c0.44-0.89 0.7-1.61-0.02-2.09z" stroke="#241f1c" stroke-width=".15911" fill="#241f1c"/>
            <path id="rect3789-2-60-1-2-1-8-6" d="m312.36 138.37l-0.17 0.24c0.66 0.41 0.31 0.97 0.01 1.78l0.27 0.05c0.41-0.92 0.64-1.65-0.11-2.07z" stroke="#241f1c" stroke-width=".15911" fill="#241f1c"/>
            <path id="rect3789-2-6-3-4-4-6-2-6" d="m310.93 138.26l-0.15 0.24c0.69 0.35 0.41 0.94 0.18 1.78l0.27 0.03c0.32-0.96 0.48-1.71-0.3-2.05z" stroke="#241f1c" stroke-width=".15911" fill="#241f1c"/>
            <path id="rect3789-2-6-0-6-9-5-85-9-1" d="m309.54 138.17l-0.13 0.26c0.73 0.28 0.5 0.9 0.35 1.76l0.27-0.01c0.23-0.98 0.32-1.74-0.49-2.01z" stroke="#241f1c" stroke-width=".15911" fill="#241f1c"/>
            <path id="rect3789-2-60-1-2-9-6-3-4" d="m308.13 138.26l-0.11 0.27c0.75 0.19 0.55 0.87 0.46 1.73l0.27-0.03c0.17-0.99 0.21-1.8-0.62-1.97z" stroke="#241f1c" stroke-width=".15911" fill="#241f1c"/>
            <path id="rect3789-2-6-3-4-4-9-1-5-9" d="m306.8 138.55l-0.09 0.28c0.76 0.13 0.63 0.77 0.62 1.64l0.27-0.06c0.07-1 0.04-1.76-0.8-1.86z" stroke="#241f1c" stroke-width=".15911" fill="#241f1c"/>
            <path id="rect3789-2-6-0-6-9-5-8-8-9-6" d="m305.33 139.01l-0.06 0.29c0.77 0.05 0.7 0.71 0.77 1.58l0.26-0.09c-0.02-1.01-0.13-1.77-0.97-1.78z" stroke="#241f1c" stroke-width=".15911" fill="#241f1c"/>
            <path id="rect3789-2-60-1-2-9-8-2-4-7" d="m303.94 139.63l-0.02 0.29c0.77-0.08 0.78 0.58 0.95 1.42l0.25-0.12c-0.13-0.99-0.33-1.72-1.18-1.59z" stroke="#241f1c" stroke-width=".15911" fill="#241f1c"/>
            <path id="rect3789-2-6-3-4-4-9-6-7-0-8" d="m302.72 140.42v0.29c0.76-0.14 0.83 0.52 1.07 1.34l0.24-0.15c-0.22-0.97-0.47-1.68-1.31-1.48z" stroke="#241f1c" stroke-width=".15911" fill="#241f1c"/>
            <path id="rect3789-2-6-0-6-9-5-8-9-9-7-8" d="m301.44 141.23l0.02 0.3c0.75-0.22 0.88 0.43 1.2 1.22l0.22-0.17c-0.31-0.94-0.63-1.62-1.44-1.35z" stroke="#241f1c" stroke-width=".15911" fill="#241f1c"/>
            <path id="rect3789-2-60-1-2-9-8-6-5-6-2" d="m300.18 142.4l0.07 0.28c0.71-0.35 0.92 0.25 1.35 0.97l0.2-0.2c-0.44-0.87-0.85-1.47-1.62-1.05z" stroke="#241f1c" stroke-width=".15911" fill="#241f1c"/>
            <path id="rect3789-2-6-3-4-4-9-6-6-4-3-9" d="m299.02 143.62l0.09 0.27c0.69-0.42 0.95 0.17 1.43 0.84l0.19-0.22c-0.51-0.82-0.97-1.38-1.71-0.89z" stroke="#241f1c" stroke-width=".15911" fill="#241f1c"/>
            <path id="path7246" d="m342.41 149.3c1.42-0.99 1.61-1.58 2.79-2.91 0.42-0.48 0.96-1 1.51-1.5 0.22-0.19 0.48-0.38 0.7-0.56 0.21-0.18 0.45-0.33 0.64-0.49 1.53-1.29 3.58-2.25 5.59-2.72 1.58-0.4 3.03-0.46 4.39-0.35 3.54 0.31 6.27 2.04 8.18 4.66-2.07 4.24-6.05 7.63-10.88 7.99-4.9 0.38-8.4-2.97-12.92-4.12z" stroke="#000" stroke-width="1.0736" fill="#fff"/>
            <path id="path7248" d="m340.9 149.05c0.38 0.18 0.91-0.77 1.17-0.92 0.3-0.15 0.61-0.43 1.06-1 0.85-1.09 1.68-2.04 2.52-2.94 0.48-0.52 1.13-0.97 1.62-1.42 0.68-0.64 1.5-1.07 2.2-1.52 0.18-0.12 0.25-0.21 0.42-0.31 0.06-0.03 0.13-0.08 0.18-0.11 6.47-4.33 12.51-2.5 16.96 3.53 1.98-2.53 0.08-8.32-0.73-9.33-1.1-1.17-5.31-3.88-10.33-3.23-4.49 0.59-6.43 1.14-9.91 3.83-1.58 1.22-4.04 3.74-5.65 6.75-1.06 2.57-0.49 5.37 0.49 6.67z" fill="url(#linearGradient5580)"/>
            <path id="path7250" d="m341.15 149.53c0.95-0.44 1.4-0.63 2.23-1.74 6.49-8.75 17.49-10.41 23.43-2.38 0.29-0.38 0.47-0.77 0.56-1.13 0.52-2.09-2-3.85-3.51-5.12-2.03-1.41-3.83-2.68-7.53-2.47-1.81 0.1-3.87 0.54-7.1 2.3-1.76 0.95-4.53 3.33-5.95 4.85-2.31 2.46-3.09 4.49-2.13 5.69z" fill="#c83771"/>
            <path id="path7252" d="m432.47 398.43a27.02 29.22 0 1 1 -54.04 0 27.02 29.22 0 1 1 54.04 0z" fill="url(#radialGradient5576)" transform="matrix(.20429 -.017764 .019601 .17953 264.79 82.653)"/>
            <g id="g7254" transform="matrix(.16414 .0015004 .0020526 .15944 289.16 82.411)">
              <path id="path7256" d="m432.18 398.43a26.728 29.22 0 1 1 -53.46 0 26.728 29.22 0 1 1 53.46 0z" transform="matrix(.62712 0 0 .68217 143.94 130.48)"/>
              <path id="path7258" opacity=".84615" d="m382.91 397.29c4.84-12.93 13.84-15.96 23.6-11.45l-0.35 1.78c-10.63-3.9-17.81-0.53-21.79 10.89l-1.46-1.22z"/>
              <path id="path7260" opacity=".84615" d="m413.26 407.27c-4.84 12.93-13.83 15.96-23.6 11.46l0.36-1.78c10.62 3.89 17.81 0.52 21.79-10.89l1.45 1.21z"/>
            </g>
            <path id="path7262" d="m380.09 401.16a3.5987 4.1128 0 1 1 -7.19 0 3.5987 4.1128 0 1 1 7.19 0z" fill="url(#radialGradient5578)" transform="matrix(.45753 -.042968 .041887 .41435 166.33 -3.0417)"/>
            <path id="path7264" d="m340.81 147.46l0.27 0.08c-0.28 0.77 0.36 1.03 1.04 1.5-0.07 0.07-0.14 0.13-0.22 0.18-0.83-0.47-1.43-0.92-1.09-1.76z" stroke="#241f1c" stroke-width=".15911" fill="#241f1c"/>
            <path id="path7266" d="m341.86 146.53l0.26 0.08c-0.29 0.77 0.3 0.94 0.98 1.47-0.04 0.05-0.12 0.14-0.19 0.21-0.82-0.51-1.4-0.93-1.05-1.76z" stroke="#241f1c" stroke-width=".15911" fill="#241f1c"/>
            <path id="path7268" d="m342.66 145.48l0.27 0.07c-0.28 0.77 0.31 1 1 1.45l-0.18 0.22c-0.83-0.47-1.42-0.9-1.09-1.74z" stroke="#241f1c" stroke-width=".15911" fill="#241f1c"/>
            <path id="path7270" d="m343.61 144.42l0.25 0.09c-0.33 0.75 0.24 1.02 0.9 1.52l-0.18 0.2c-0.8-0.52-1.37-1-0.97-1.81z" stroke="#241f1c" stroke-width=".15911" fill="#241f1c"/>
            <path id="path7272" d="m344.64 143.37l0.26 0.1c-0.36 0.74 0.2 1.03 0.83 1.56l-0.2 0.2c-0.77-0.56-1.32-1.07-0.89-1.86z" stroke="#241f1c" stroke-width=".15911" fill="#241f1c"/>
            <path id="path7274" d="m345.67 142.52l0.25 0.11c-0.41 0.72 0.12 1.04 0.73 1.61l-0.21 0.18c-0.74-0.6-1.25-1.13-0.77-1.9z" stroke="#241f1c" stroke-width=".15911" fill="#241f1c"/>
            <path id="path7276" d="m346.73 141.64l0.24 0.13c-0.42 0.69 0.1 1.04 0.69 1.65l-0.22 0.17c-0.72-0.65-1.21-1.21-0.71-1.95z" stroke="#241f1c" stroke-width=".15911" fill="#241f1c"/>
            <path id="path7278" stroke="#000" stroke-width=".15911" d="m347.88 140.85l0.23 0.15c-0.48 0.65 0.01 1.05 0.54 1.7l-0.23 0.15c-0.66-0.71-1.1-1.31-0.54-2z"/>
            <path id="path7280" d="m349.18 140.1l0.22 0.17c-0.53 0.6-0.07 1.04 0.42 1.75l-0.25 0.12c-0.61-0.77-1-1.41-0.39-2.04z" stroke="#241f1c" stroke-width=".15911" fill="#241f1c"/>
            <path id="path7282" d="m350.51 139.47l0.21 0.19c-0.57 0.55-0.14 1.04 0.3 1.77l-0.25 0.12c-0.56-0.82-0.91-1.5-0.26-2.08z" stroke="#241f1c" stroke-width=".15911" fill="#241f1c"/>
            <path id="path7284" d="m351.78 139.03l0.2 0.2c-0.6 0.52-0.2 1.02 0.19 1.78l-0.26 0.1c-0.5-0.85-0.82-1.54-0.13-2.08z" stroke="#241f1c" stroke-width=".15911" fill="#241f1c"/>
            <path id="path7286" d="m353.2 138.6l0.18 0.21c-0.64 0.47-0.27 1.01 0.06 1.8l-0.27 0.07c-0.44-0.88-0.69-1.6 0.03-2.08z" stroke="#241f1c" stroke-width=".15911" fill="#241f1c"/>
            <path id="path7288" d="m354.45 138.37l0.18 0.24c-0.66 0.41-0.32 0.97-0.02 1.78l-0.27 0.05c-0.4-0.92-0.63-1.65 0.11-2.07z" stroke="#241f1c" stroke-width=".15911" fill="#241f1c"/>
            <path id="path7290" d="m355.89 138.24l0.15 0.25c-0.7 0.34-0.41 0.93-0.19 1.77l-0.27 0.03c-0.32-0.96-0.47-1.71 0.31-2.05z" stroke="#241f1c" stroke-width=".15911" fill="#241f1c"/>
            <path id="path7292" d="m357.28 138.15l0.13 0.27c-0.73 0.27-0.5 0.89-0.35 1.75h-0.27c-0.23-0.98-0.32-1.75 0.49-2.02z" stroke="#241f1c" stroke-width=".15911" fill="#241f1c"/>
            <path id="path7294" d="m358.68 138.24l0.11 0.27c-0.75 0.2-0.55 0.87-0.46 1.74l-0.27-0.03c-0.17-1-0.21-1.8 0.62-1.98z" stroke="#241f1c" stroke-width=".15911" fill="#241f1c"/>
            <path id="path7296" d="m360 138.54l0.09 0.29c-0.76 0.12-0.63 0.76-0.62 1.63l-0.27-0.05c-0.07-1.01-0.04-1.77 0.8-1.87z" stroke="#241f1c" stroke-width=".15911" fill="#241f1c"/>
            <path id="path7298" d="m361.51 139l0.06 0.29c-0.77 0.05-0.7 0.72-0.78 1.58l-0.26-0.08c0.03-1.01 0.13-1.77 0.98-1.79z" stroke="#241f1c" stroke-width=".15911" fill="#241f1c"/>
            <path id="path7300" d="m362.91 139.6l0.03 0.29c-0.78-0.07-0.78 0.58-0.95 1.42l-0.26-0.11c0.14-0.99 0.33-1.72 1.18-1.6z" stroke="#241f1c" stroke-width=".15911" fill="#241f1c"/>
            <path id="path7302" d="m364.18 140.29v0.3c-0.76-0.14-0.83 0.51-1.07 1.33l-0.24-0.14c0.22-0.97 0.47-1.68 1.31-1.49z" stroke="#241f1c" stroke-width=".15911" fill="#241f1c"/>
            <path id="path7304" d="m365.4 141.15l-0.03 0.29c-0.75-0.22-0.87 0.43-1.19 1.23l-0.23-0.17c0.32-0.95 0.64-1.63 1.45-1.35z" stroke="#241f1c" stroke-width=".15911" fill="#241f1c"/>
            <path id="path7306" d="m366.7 142.33l-0.07 0.28c-0.71-0.35-0.92 0.25-1.35 0.97l-0.2-0.2c0.44-0.87 0.85-1.47 1.62-1.05z" stroke="#241f1c" stroke-width=".15911" fill="#241f1c"/>
            <path id="path7308" d="m367.82 143.54l-0.08 0.28c-0.69-0.42-0.95 0.17-1.44 0.84l-0.19-0.22c0.52-0.82 0.98-1.39 1.71-0.9z" stroke="#241f1c" stroke-width=".15911" fill="#241f1c"/>
            <path id="path6443" d="m341.5 131.53c7.44-8.13 18.61-9.38 30.11 0v1.04c-10.87-6.82-23.6-0.31-30.11 0v-1.04z" fill="#39330e"/>
            <g id="g6548" fill="#fdc676" transform="matrix(1.0349 0 0 1.0349 -32.976 -30.762)">
              <path id="path6282" d="m346.72 189.82a1.6996 2.3794 0 1 1 -3.4 0 1.6996 2.3794 0 1 1 3.4 0z" transform="matrix(0 -.642 .62042 0 233.97 414.83)"/>
              <path id="path6454" d="m346.72 189.82a1.6996 2.3794 0 1 1 -3.4 0 1.6996 2.3794 0 1 1 3.4 0z" transform="matrix(0 -.642 .62042 0 239.97 414.83)"/>
            </g>
            <g id="g4166" transform="translate(.68392 -3.5975)">
              <path id="path6822" d="m314.82 187.03c1.05-1.13 3.28 0.49 7.07-1.8 2.85-1.5 4.99-2.23 7.07-1.87 2.06 0.59 2.93 2.41 4.65 2.73 1.63-0.35 1.96-1.81 4.12-2.52 2.37-0.72 4-0.03 6.39 1.7 2.71 2.39 6.34 0.76 7.11 2.32-0.55 1.43-2.14 3.19-3.49 4.1-9.51 6.95-17.74 6.57-28.47 1.04-2.11-1.22-4.22-3.44-4.45-5.7z" fill="#ca3b73"/>
              <path id="path4222" opacity=".69048" d="m342.79 211.93c0.39-0.36 4.16-0.47 7.21-0.15 1.87 0.19 3.5 0.26 3.98 0.2 0.57-0.01 2.29 0.07 4.26-0.2 2.95-0.4 6.3-0.53 6.6-0.07-1.33 1.54-4 2.59-7.13 3.1-1.65 0.27-2.41 0.42-3.61 0.36-5-0.25-9.68-0.84-11.31-3.24z" transform="matrix(1.0349 0 0 1.0349 -32.561 -27.543)" filter="url(#filter4926)" fill="url(#linearGradient5586)"/>
              <path id="path4248" opacity=".69048" d="m343.77 206.2c1.94-1.07 2.6-1.44 4.01-1.53 0.55-0.02 3.24 0.95 3.8 2.02-3.05 4.24-10.39 1.15-7.81-0.49z" transform="matrix(1.0349 0 0 1.0349 -32.561 -27.543)" filter="url(#filter4850)" fill="url(#linearGradient5588)"/>
              <path id="path4642" opacity=".69048" d="m363.48 206.27c-1.94-1.08-2.6-1.45-4.01-1.54-0.55-0.02-3.24 0.96-3.8 2.02 3.05 4.25 10.39 1.15 7.81-0.48z" transform="matrix(1.0349 0 0 1.0349 -32.561 -27.543)" filter="url(#filter4890)" fill="url(#linearGradient5590)"/>
            </g>
            <path id="path3133" d="m420.62 501.05l-97.91-3.44c-2.12 31.19 9.72 76.11 6.51 111.35-4.39 48.26 2.51 89.97 15.11 145.24-2.96 21.26-2.66 94.46 2.47 144.36 0.61 5.86 3.23 25.73 3.14 42.72-0.06 11.29-0.47 21.36-0.95 23.94-1.53 8.31 1.14 16.09 1.74 22.25 0.5 5.21 0.49 7.06 0.73 10.94l13.7-0.02c0.53-2.83 0.49-5.67 0.77-11 0.34-6.55 3.16-13.34 1.33-22.87-0.86-4.49-1.36-15.1-0.26-24.07 1.61-13.23 2.66-29.87 4.08-44.33 4.25-43.18 9.48-109.33 5.92-141.86 18.29-48.5 53.37-178.5 43.62-253.21z" fill="#fee2bd"/>
            <g id="g6961" transform="matrix(1.1909 .047682 -.045739 1.2414 8.4047 -237.75)">
              <path id="path6963" d="m338.12 956.45c0.14-0.71 0.31 0.71 0.52 2.48 0.06 0.53 0.07 1.08 0.15 1.63 0.31 2.18 1.02 4.37 1.17 5.38 2.11 14.41-1.86 23.31-9.64 22.41-8.3-1.58-8.12-32.06-7.6-31.16 0.28 0.49 0.21 2.19 0.2 3.92-0.02 1.91 0.06 3.87 2.01 4.53 2.87 0.98 8.39 1.25 11.16 0.46 2.56-0.73 2.01-3.21 2-5.64-0.01-1.45-0.19-2.82 0.03-4.01z"/>
              <g id="g6965" stroke="#000" transform="matrix(.34626 -.041022 .027622 .29283 60.023 886.44)" fill="url(#linearGradient5592)">
                <path id="path6967" stroke-width="2.1867" d="m756.94 417.79l-33.13 15.59 3.07-36.26 30.06 20.67z"/>
                <path id="path6969" stroke-width="2.1867" d="m747.81 416.81l30.36 20.58 2.94-35.41-33.3 14.83z"/>
                <path id="path6971" stroke-width="2.1549" d="m763.23 417.28c-0.68 8.09-2.1 15.43-11.49 14.65s-9.65-7.41-8.98-15.51 2.03-14.6 11.42-13.82 9.72 6.58 9.05 14.68z"/>
              </g>
            </g>
            <path id="path4530" d="m242.4 498.16l97.91-2.83c2.12 25.71-9.71 62.75-6.51 91.81 4.39 39.8-2.51 74.19-15.11 119.77 2.25 16.34 6.61 62.12 0.4 118.65-0.53 4.85-4.31 22.35-4.22 36.36 0.06 9.31-1.11 16.83-0.84 19 0.86 7.05-1.14 13.27-1.74 18.35-0.5 4.29-0.49 5.82-0.73 9.01l-13.7-0.01c-0.53-2.33-0.49-4.68-0.77-9.08-0.34-5.39-2.7-10.72-1.33-18.85 0.64-3.81 0.39-12.37 0.27-19.85-0.18-10.55-1.33-23.22-4.09-36.56-8.21-39.59-5.17-84.23-5.92-116.98-18.29-39.98-53.37-147.18-43.62-208.79z" fill="#fee2bd"/>
            <g id="g4532" transform="matrix(-1.1169 .036878 .0429 .96015 633.36 -47.701)">
              <path id="path4534" d="m339.2 956.49c0.18-0.93 0.15 1.64 0.48 4 0.31 2.18 0.41 4.52 0.43 5.42 0.37 14.54-2.01 23.34-9.79 22.44-8.3-1.58-8.31-32.05-7.79-31.14 0.29 0.49 0.31 2.17 0.39 3.9 0.09 1.9 0.06 3.87 2.01 4.53 2.87 0.98 8.39 1.25 11.16 0.46 2.56-0.73 3.04-3.08 3.02-5.51-0.01-1.45-0.13-2.92 0.09-4.1z"/>
              <g id="g4536" stroke="#000" transform="matrix(.34626 -.041022 .027622 .29283 60.023 886.44)" fill="url(#linearGradient5592)">
                <path id="path4538" stroke-width="2.1867" d="m756.94 417.79l-33.13 15.59 3.07-36.26 30.06 20.67z"/>
                <path id="path4540" stroke-width="2.1867" d="m747.81 416.81l30.36 20.58 2.94-35.41-33.3 14.83z"/>
                <path id="path4542" stroke-width="2.1549" d="m763.23 417.28c-0.68 8.09-2.1 15.43-11.49 14.65s-9.65-7.41-8.98-15.51 2.03-14.6 11.42-13.82 9.72 6.58 9.05 14.68z"/>
              </g>
            </g>
            <path id="path2940-7-0-0-2-1-5-6-5" d="m400.23 742.15c19.11-32.96 22.25-141.7 22.11-194.35-0.02-9.82-0.11-22.74-0.14-25.26-0.01-1.13-0.05-2.25-0.11-3.38-0.02-0.59-0.05-1.17-0.07-1.76-0.21-6.31-0.75-12.5-1.72-18.53-0.28-1.74-0.67-3.49-1.01-5.2-0.42-2.11-0.85-4.2-1.32-6.25-0.76-3.3-1.61-6.53-2.53-9.67-0.4-1.36-0.87-2.7-1.29-4.02-0.21-0.65-0.4-1.29-0.61-1.93-0.2-0.61-0.41-1.21-0.62-1.81-0.26-0.75-0.53-1.49-0.79-2.22-0.14-0.42-0.3-0.83-0.45-1.24-0.12-0.34-0.26-0.68-0.38-1.02-0.09-0.25-0.19-0.5-0.28-0.75-3-8.39-6.08-15.95-9.05-22.39-4.02-8.75-5.27-15.46-6.22-19.47-0.99-4.24-1.54-7.89-1.87-11.52-0.07-0.71-0.14-1.43-0.19-2.15-0.03-0.47-0.08-0.94-0.1-1.42-0.03-0.55-0.08-1.11-0.09-1.67-0.02-0.46-0.05-0.94-0.06-1.41 0-0.25-0.03-0.51-0.03-0.77-0.01-0.37-0.03-0.73-0.03-1.1 0-0.14-0.02-0.3-0.02-0.44 0-0.29-0.01-0.59-0.01-0.88s-0.02-0.57-0.01-0.86c0-0.35-0.02-0.7-0.01-1.05 0.01-0.26 0-0.54 0-0.81 0.01-0.29 0-0.57 0.01-0.86 0.01-0.32 0-0.66 0.01-0.99 0.01-0.28 0-0.57 0.01-0.85 0.02-0.31 0.01-0.63 0.02-0.94 0.02-0.34 0.02-0.68 0.03-1.02 0.03-0.53 0.04-1.07 0.07-1.62 0.04-0.67 0.06-1.35 0.1-2.05 0.07-1.18 0.13-2.4 0.22-3.68 0.03-0.45 0.07-0.91 0.11-1.37 0.03-0.32 0.1-1.36 0.22-2.76 0.08-0.93 0.18-1.93 0.35-2.76 1.28-6.31 4.1-11.26 6.57-16.85 4.61-10.4 9.68-18.85 11.52-26.3 2.74-11.03 4.46-21.76 3.26-30.38-0.6-26.87-168.32-31.06-168.45-4.97-0.04 8.14-3.38 19.41-1.87 30.09 2.79 19.66 13.3 37.65 19.29 52.21 1.23 2.99 2.02 5.79 2.58 8.42 0.08 0.4 0.18 0.79 0.25 1.18 0.05 0.25 0.1 0.48 0.14 0.73 0.04 0.2 0.09 0.41 0.13 0.62 0.03 0.21 0.08 0.42 0.11 0.63 0.03 0.19 0.08 0.38 0.11 0.57 1.3 9.99-1.43 17.55-3.13 25.15-2.96 13.16-11.01 30.73-17.99 53.32-2.73 8.86-4.44 18.71-5.36 29.47-0.07 0.75-0.15 1.5-0.23 2.25-0.05 0.55-0.09 1.1-0.14 1.65-0.04 0.49-0.07 0.98-0.11 1.47-0.05 0.64-0.08 1.27-0.13 1.9-0.03 0.38-0.04 0.77-0.06 1.15-0.03 0.42-0.04 0.85-0.06 1.27-0.03 0.43-0.04 0.86-0.06 1.28-0.02 0.38-0.02 0.75-0.04 1.12-0.01 0.24-0.01 0.47-0.02 0.71-0.01 0.2 0 0.41-0.01 0.61-0.01 0.27-0.02 0.55-0.03 0.82-0.07 1.7-0.12 3.37-0.19 5-3.01 68.93-10.14 177.25 8.83 214.01 18.61 36.06 129.48 39.82 150.84 5.1z"/>
            <path id="path3425" d="m191.36 568.6c7.76 4.23 7.06 13.18 5.88 15.19-3.02 2.89-3.67-6.12-4.48-8.15-2.18-5.46-8.13 0.81-1.77 6.16 8.92 7.51 5.48 11.61-1.57 3.62-3.65-4.14-6.86-1.64-0.58 3.35 9.94 7.91 5.8 10.66-2.66 3.15-4.12-3.66-4.59 0.36-0.11 4.17 5.87 4.99 2.55 7.68-1.97 2.83-2.59-2.78-3.8-1.37-2.5 0.7 2.4 3.82 1.26 4.85-0.49 3.52-5.4-6.46-7.71-31.06 3.29-36.59 2.47-1.24 4.2 0.56 6.96 2.05z" fill="#fee2bd"/>
            <path id="path4431" d="m438.93 642.74c1.89-7.85-0.67-28.88 1.82-38.39 4.26-16.3 12.24-22.48 30.36-26.66 16.06-3.71 34.7-4.12 43.12 12.23 5.71 11.1 7.72 18.11 12.93 28.82 0.82 1.69 1.03 4.9 1.45 6.87" stroke="#000" stroke-width="10.929" fill="none"/>
            <path id="path4437" d="m552.13 303.08c4.76-10 7.28-38.97 13.32-51.04 10.34-20.69 22.81-26.72 48.33-27.2 22.62-0.44 47.77 4.29 54.44 28.64 4.53 16.53 5.23 26.51 9.2 42.37 0.62 2.49 0 6.87 0 9.64" transform="matrix(.71290 -.15040 .15040 .71290 -.26941 509.71)" filter="url(#filter4483)" stroke="#d4d4d4" stroke-width="4.2" fill="none"/>
            <rect id="rect4433" transform="matrix(.97846 -.20642 .20642 .97846 0 0)" height="189.67" width="192.6" y="717.81" x="247.86" fill="url(#linearGradient5608)"/>
            <rect id="rect4784" transform="rotate(-31.993)" height="189.67" width="192.6" y="799.3" x="-9.2369" fill="url(#linearGradient5610)"/>
            <path id="path3427" d="m468.56 569.73c-7.43 4.79-6.43 12.85-4.76 15.58 3.46 2.39 3.22-6.37 3.88-8.46 1.78-5.59 8.16 0.22 2.21 6.02-8.35 8.14-4.62 11.97 1.83 3.49 3.34-4.38 6.73-2.13 0.82 3.31-9.34 8.61-5.01 11.05 2.88 2.95 3.84-3.95 4.61 0.02 0.41 4.15-5.49 5.4-1.98 7.84 2.17 2.68 2.39-2.97 3.69-1.65 2.55 0.51-2.11 3.98-0.91 4.93 0.75 3.48 4.91-6.84 5.42-31.54-5.95-36.25-2.55-1.06-4.14 0.86-6.79 2.54z" fill="#fee2bd"/>
            <path id="path4507" d="m438.75 246.21c-1.82-4.14-4.83-6.35-7.95-7.89-0.38-0.19-0.75-0.36-1.13-0.53-16.5-7.38-10.26 0.34-19.32 14.64 8.77 72.69 14 97.43 31.65 170.83-2.48 7.82 1.34 30.89 6.55 58.85 5.5 29.57 12.54 64.6 15.31 92.87l17.38-1.28c-5.35-73.84-8.56-128.37-19.48-154.8 2.3-64.65-6.22-103.47-23.01-172.69z" fill="#fee2bd"/>
            <path id="rect5056" d="m221.99 309.77c7.58 8.35 23.38 19.88 45.83 1.28 22.07-17.19 29.61-9.28 42.77-1.17 21.64 13.44 29.32 13.16 39.9 2.37 15.1-12.55 28.16-12.88 38.49-0.48 18.74 15.22 39.37 10.96 49.5 0.3 10.1-11.41 13.61-35.81 4.49-48.28-66.9 20.2-154.66 14.49-223.25-1.27-10.83 12.18-7.28 35.21 2.27 47.25z" fill="url(#linearGradient5612)"/>
            <path id="path3914" d="m182.89 552.16c-0.09 0.06 0.72-9.95 0.79-11.27 4.14-6.59 14.43-8.14 18.65 0.11-0.68 4.18-2.48 12.83-2.54 12.77-0.93-0.99-1.17-1.43-1.42-1.69-0.64-0.68-0.85-0.58-1.26-0.96-3.45-3.26-8.37-3.09-14.22 1.04z" fill="url(#linearGradient5614)"/>
          </g>
        </g>
      </g>
    </g>
  </g>
  <metadata>
    <rdf:RDF>
      <cc:Work>
        <dc:format>image/svg+xml</dc:format>
        <dc:type rdf:resource="http://purl.org/dc/dcmitype/StillImage"/>
        <cc:license rdf:resource="http://creativecommons.org/licenses/publicdomain/"/>
        <dc:publisher>
          <cc:Agent rdf:about="http://openclipart.org/">
            <dc:title>Openclipart</dc:title>
          </cc:Agent>
        </dc:publisher>
        <dc:title>glamour girl shopping</dc:title>
        <dc:date>2011-08-07T00:55:27</dc:date>
        <dc:description>glamour girl shopping</dc:description>
        <dc:source>http://openclipart.org/detail/153961/glamour-girl-shopping-by-artmaker</dc:source>
        <dc:creator>
          <cc:Agent>
            <dc:title>Artmaker</dc:title>
          </cc:Agent>
        </dc:creator>
        <dc:subject>
          <rdf:Bag>
            <rdf:li>Shopping</rdf:li>
            <rdf:li>bags</rdf:li>
            <rdf:li>beauty</rdf:li>
            <rdf:li>black</rdf:li>
            <rdf:li>clip art</rdf:li>
            <rdf:li>clipart</rdf:li>
            <rdf:li>clothes</rdf:li>
            <rdf:li>dress</rdf:li>
            <rdf:li>fashion</rdf:li>
            <rdf:li>glamour</rdf:li>
            <rdf:li>makeup</rdf:li>
            <rdf:li>purchase</rdf:li>
            <rdf:li>sale</rdf:li>
            <rdf:li>style</rdf:li>
            <rdf:li>walking</rdf:li>
            <rdf:li>women</rdf:li>
          </rdf:Bag>
        </dc:subject>
      </cc:Work>
      <cc:License rdf:about="http://creativecommons.org/licenses/publicdomain/">
        <cc:permits rdf:resource="http://creativecommons.org/ns#Reproduction"/>
        <cc:permits rdf:resource="http://creativecommons.org/ns#Distribution"/>
        <cc:permits rdf:resource="http://creativecommons.org/ns#DerivativeWorks"/>
      </cc:License>
    </rdf:RDF>
  </metadata>
</svg>
